<svg width="15" height="18" viewBox="0 0 15 18" fill="none" xmlns="http://www.w3.org/2000/svg">
<path d="M7.50781 4C6.88975 4 6.28556 4.18328 5.77166 4.52666C4.90688 4.52666 5.1434 5.51229 4.90688 6.08331C4.67035 6.65432 4.32228 7.12847 4.44286 7.73466C4.56344 8.34085 4.86106 8.89767 5.2981 9.33471C5.73514 9.77175 6.29196 10.0694 6.89816 10.19C7.50435 10.3105 8.13268 10.2486 8.7037 10.0121C9.27472 9.7756 9.76278 9.37506 10.1062 8.86116C10.4495 8.34725 10.6328 7.74307 10.6328 7.125C10.6307 6.29683 10.3008 5.50317 9.71524 4.91757C9.12964 4.33196 8.33598 4.00206 7.50781 4ZM7.50781 9C7.13697 9 6.77446 8.89003 6.46612 8.684C6.15778 8.47798 5.91745 8.18514 5.77554 7.84253C5.63362 7.49992 5.59649 7.12292 5.66884 6.7592C5.74119 6.39549 5.91976 6.0614 6.18199 5.79917C6.44421 5.53695 6.7783 5.35837 7.14202 5.28603C7.50573 5.21368 7.88273 5.25081 8.22534 5.39272C8.56796 5.53464 8.86079 5.77496 9.06682 6.08331C9.27285 6.39165 9.38281 6.75416 9.38281 7.125C9.38076 7.62165 9.18255 8.09737 8.83137 8.44855C8.48018 8.79974 8.00446 8.99794 7.50781 9ZM7.50781 0.25C5.68508 0.252068 3.9376 0.97706 2.64874 2.26592C1.35987 3.55479 0.63488 5.30227 0.632812 7.125C0.632812 9.57812 1.76562 12.1797 3.91406 14.6406C4.87981 15.7553 5.96436 16.7613 7.14844 17.6406C7.25489 17.7115 7.37992 17.7493 7.50781 17.7493C7.6357 17.7493 7.76074 17.7115 7.86719 17.6406C9.05472 16.7626 10.142 15.7566 11.1094 14.6406C13.25 12.1797 14.3828 9.57812 14.3828 7.125C14.3807 5.30227 13.6558 3.55479 12.3669 2.26592C11.078 0.97706 9.33054 0.252068 7.50781 0.25ZM8.7037 9.72473C7.662 8.38099 5.4931 11.7382 5.4931 7.26944C5.4931 5.77759 4.61395 6.44762 5.66884 5.39272C6.72373 4.33783 6.50816 4.5 8 4.5C9.49184 4.5 8.66035 4.33783 9.71524 5.39272C10.7701 6.44762 10.5 6.00816 10.5 7.5C8.22534 10.1665 9.99276 8.70911 8.7037 9.72473Z" fill="#6FB54B"/>
</svg>
