<svg width="30" height="28" viewBox="0 0 30 28" fill="none" xmlns="http://www.w3.org/2000/svg">
<path fill-rule="evenodd" clip-rule="evenodd" d="M14.9965 0.333255C15.3772 0.332277 15.7255 0.547619 15.8948 0.888688L19.7903 8.73772L28.4776 10.0044C28.8538 10.0593 29.1663 10.3227 29.2841 10.6841C29.4019 11.0455 29.3046 11.4425 29.033 11.7084L22.7146 17.8963L24.2154 26.4946C24.2811 26.8711 24.1264 27.2522 23.8169 27.4764C23.5074 27.7006 23.0972 27.7288 22.7599 27.5491L14.9991 23.4126L7.24002 27.549C6.90255 27.7289 6.49201 27.7006 6.18244 27.4761C5.87286 27.2515 5.71847 26.8701 5.7847 26.4934L7.29635 17.8963L0.967587 11.709C0.695559 11.4431 0.597993 11.0458 0.715872 10.6841C0.833752 10.3224 1.14666 10.0589 1.52315 10.0043L10.2579 8.73774L14.101 0.893296C14.2686 0.551362 14.6157 0.334233 14.9965 0.333255ZM15.0049 3.59435L11.8217 10.0916C11.6764 10.3882 11.3941 10.5939 11.0672 10.6413L3.81243 11.6933L9.07166 16.8349C9.30769 17.0657 9.41464 17.3981 9.35748 17.7232L8.10982 24.8189L14.5286 21.3969C14.8226 21.2402 15.1754 21.2402 15.4694 21.3969L21.8929 24.8206L20.6539 17.7219C20.5973 17.3975 20.7041 17.066 20.9394 16.8355L26.1912 11.6922L18.9832 10.6412C18.6585 10.5938 18.3777 10.3902 18.2318 10.0962L15.0049 3.59435Z" fill="#6FB54B"/>
</svg>
